<svg xmlns="http://www.w3.org/2000/svg" xmlns:xlink="http://www.w3.org/1999/xlink" width="1587" zoomAndPan="magnify" viewBox="0 0 1190.25 1683.749949" height="2245" preserveAspectRatio="xMidYMid meet" version="1.0"><defs><clipPath id="92a480cf9e"><path d="M 0 0.40625 L 1189.5 0.40625 L 1189.5 1683.09375 L 0 1683.09375 Z M 0 0.40625 " clip-rule="nonzero"/></clipPath><clipPath id="310e8a0d00"><path d="M 462.289062 492.128906 L 727.621094 492.128906 L 727.621094 810.675781 L 462.289062 810.675781 Z M 462.289062 492.128906 " clip-rule="nonzero"/></clipPath></defs><g clip-path="url(#92a480cf9e)"><path fill="#ffffff" d="M 0 0.40625 L 1189.5 0.40625 L 1189.5 1683.09375 L 0 1683.09375 Z M 0 0.40625 " fill-opacity="1" fill-rule="nonzero"/><path fill="#ffffff" d="M 0 0.40625 L 1189.5 0.40625 L 1189.5 1683.09375 L 0 1683.09375 Z M 0 0.40625 " fill-opacity="1" fill-rule="nonzero"/></g><g clip-path="url(#310e8a0d00)"><path fill="#000000" d="M 653.167969 554.445312 C 672.953125 555.472656 692.085938 568.140625 691.71875 589.976562 C 691.714844 590.15625 691.765625 590.320312 691.867188 590.46875 C 691.972656 590.617188 692.109375 590.71875 692.28125 590.777344 C 701.867188 594.046875 709.777344 599.449219 716.015625 606.984375 C 723.09375 615.539062 726.804688 625.277344 727.140625 636.207031 C 727.515625 648.335938 722.542969 660.125 712.574219 667.300781 C 712.257812 667.527344 712.058594 667.828125 711.972656 668.207031 C 702.570312 708.371094 693.203125 748.542969 683.871094 788.726562 C 683.421875 790.660156 682.964844 792.632812 682.507812 794.640625 C 680.699219 802.578125 675.011719 808.546875 666.984375 810.175781 C 665.394531 810.5 662.917969 810.660156 659.554688 810.65625 C 616.558594 810.617188 572.539062 810.609375 527.492188 810.628906 C 526.398438 810.628906 525.277344 810.542969 524.121094 810.375 C 515.507812 809.105469 509.386719 803.289062 507.445312 794.941406 C 497.554688 752.328125 487.703125 710.15625 477.898438 668.421875 C 477.796875 667.988281 477.5625 667.636719 477.199219 667.375 C 470.859375 662.753906 466.59375 656.597656 464.398438 648.914062 C 463.078125 644.273438 462.570312 639.570312 462.875 634.804688 C 463.5 625.007812 466.777344 616.289062 472.699219 608.644531 C 479.269531 600.171875 487.621094 594.203125 497.753906 590.730469 C 497.910156 590.675781 498.035156 590.582031 498.128906 590.449219 C 498.222656 590.316406 498.265625 590.167969 498.261719 590.003906 C 497.988281 573.445312 509.707031 560.648438 525.21875 556.417969 C 528.046875 555.644531 530.5625 555.148438 532.765625 554.921875 C 534.144531 554.777344 535.472656 554.648438 536.75 554.527344 C 536.886719 554.515625 537 554.460938 537.09375 554.367188 C 537.183594 554.269531 537.238281 554.15625 537.246094 554.023438 C 537.722656 546.957031 540.851562 540.71875 546.636719 536.53125 C 551.796875 532.800781 558.640625 531.359375 565.027344 530.941406 C 567.992188 530.75 570.972656 530.539062 573.972656 530.320312 C 576.277344 530.148438 580.707031 529.535156 581.90625 527.414062 C 582.367188 526.589844 582.492188 525.53125 582.28125 524.234375 C 581.929688 522.070312 581.679688 519.914062 581.527344 517.769531 C 581.082031 511.453125 583.199219 505.792969 587.394531 501.160156 C 590.660156 497.542969 594.234375 494.90625 598.121094 493.242188 C 600.71875 492.128906 603.867188 492.53125 605.753906 494.671875 C 607.21875 496.328125 607.722656 498.527344 607.265625 501.269531 C 606.039062 508.640625 605.128906 515.78125 612.109375 520.261719 C 613.703125 521.28125 615.257812 522.121094 616.777344 522.78125 C 624.671875 526.199219 632.722656 529.058594 639.90625 533.988281 C 647.050781 538.894531 651.875 545.347656 652.847656 554.140625 C 652.871094 554.335938 652.976562 554.4375 653.167969 554.445312 Z M 619.953125 577.238281 C 623.832031 576.679688 627.480469 575.453125 630.894531 573.554688 C 639.554688 568.734375 646.269531 559.585938 640.664062 549.597656 C 638.25 545.304688 633.511719 542.09375 629.199219 539.816406 C 623.148438 536.625 616.246094 534.253906 610.214844 531.269531 C 603.121094 527.769531 597.828125 522.089844 596.476562 514.148438 C 596.113281 511.984375 596 509.910156 596.140625 507.917969 C 596.210938 506.933594 595.925781 506.816406 595.289062 507.570312 C 594.554688 508.4375 593.832031 509.492188 593.125 510.738281 C 592.097656 512.554688 591.695312 514.613281 591.921875 516.917969 C 592.359375 521.398438 593.207031 525.691406 591.972656 530.082031 C 589.957031 537.242188 583.109375 539.730469 576.457031 540.523438 C 573.578125 540.871094 570.382812 541.125 566.878906 541.285156 C 563.03125 541.460938 559.679688 542.046875 556.824219 543.035156 C 551.164062 545 547.078125 550.078125 547.375 556.191406 C 547.742188 563.679688 554.046875 568.679688 560.863281 570.246094 C 568.996094 572.113281 577.363281 570.566406 584.988281 568.140625 C 586.144531 567.773438 587.535156 567.777344 588.722656 568.050781 C 590.613281 568.496094 592.792969 569.34375 595.265625 570.597656 C 598.199219 572.085938 600.988281 573.621094 603.9375 574.960938 C 609.035156 577.28125 614.375 578.039062 619.953125 577.238281 Z M 651.777344 565.027344 C 647.292969 577.558594 634.335938 585.636719 621.660156 587.445312 C 620.511719 587.609375 619.394531 587.644531 618.257812 587.765625 C 617.410156 587.855469 616.574219 587.902344 615.75 587.90625 C 609.566406 587.914062 603.742188 586.546875 598.277344 583.8125 C 595.484375 582.414062 592.554688 580.9375 589.484375 579.386719 C 588.828125 579.054688 588.128906 578.820312 587.386719 578.675781 C 585.921875 578.390625 584.285156 579.175781 582.878906 579.535156 C 576.175781 581.253906 569.722656 581.820312 563.523438 581.238281 C 554.679688 580.40625 545.539062 576.292969 540.675781 568.574219 C 539.972656 567.453125 539.347656 566.320312 538.800781 565.167969 C 538.710938 564.980469 538.558594 564.890625 538.347656 564.898438 C 531.066406 565.277344 523.84375 567.070312 518.070312 571.34375 C 513.222656 574.933594 509.507812 580.34375 508.734375 586.324219 C 507.605469 595.011719 510.796875 600.308594 519.152344 602.644531 C 521.789062 603.378906 524.464844 603.804688 527.1875 603.914062 C 531.285156 604.078125 534.898438 604.039062 538.015625 603.800781 C 539.871094 603.65625 541.792969 603.453125 543.789062 603.191406 C 548.097656 602.625 552.578125 602.625 557.230469 603.191406 C 565.070312 604.140625 572.632812 606.113281 580.113281 608.628906 C 585.929688 610.589844 591.773438 612.535156 597.640625 614.460938 C 602.703125 616.125 607.535156 617.046875 612.140625 617.226562 C 622.757812 617.640625 631.132812 613.59375 637.253906 605.085938 C 638.835938 602.890625 640.972656 601.984375 643.527344 602.71875 C 645.628906 603.320312 647.890625 603.832031 650 603.996094 C 652.890625 604.226562 656.203125 604.265625 659.9375 604.105469 C 664.960938 603.894531 670.496094 602.910156 674.992188 600.550781 C 679.371094 598.25 681.519531 594.496094 681.433594 589.292969 C 681.226562 577.101562 671.921875 569.203125 660.875 566.210938 C 658.148438 565.472656 655.242188 564.996094 652.152344 564.777344 C 651.96875 564.761719 651.839844 564.847656 651.777344 565.027344 Z M 682.328125 608.164062 C 679.609375 609.964844 676.441406 611.363281 672.832031 612.359375 C 669.648438 613.238281 666.355469 613.804688 662.960938 614.058594 C 661.433594 614.171875 659.917969 614.359375 658.386719 614.367188 C 655.0625 614.375 651.707031 614.527344 648.382812 614.105469 C 647.117188 613.945312 645.800781 613.730469 644.433594 613.457031 C 644.046875 613.382812 643.738281 613.5 643.5 613.808594 C 636.648438 622.6875 626.035156 627.300781 614.804688 627.601562 C 610.742188 627.710938 606.769531 627.359375 602.882812 626.550781 C 599.714844 625.894531 596.839844 625.152344 594.261719 624.335938 C 589.214844 622.734375 583.578125 620.871094 577.355469 618.753906 C 573.332031 617.382812 569.179688 616.167969 564.902344 615.105469 C 557.570312 613.289062 550.15625 612.617188 542.804688 613.550781 C 540.132812 613.886719 538.160156 614.082031 536.890625 614.132812 C 524.394531 614.636719 507.292969 614.03125 500.898438 601.027344 C 500.847656 600.921875 500.769531 600.851562 500.664062 600.808594 C 500.558594 600.765625 500.449219 600.765625 500.34375 600.804688 C 490.03125 604.648438 481.070312 612.546875 476.496094 622.570312 C 473.710938 628.667969 472.738281 635.066406 473.566406 641.765625 C 474.496094 649.277344 478.609375 656.796875 485.765625 659.984375 C 488.957031 661.40625 492.199219 661.765625 495.488281 661.0625 C 497.300781 660.675781 498.820312 659.792969 500.257812 658.699219 C 507.6875 653.070312 515.847656 648.378906 525.53125 650.183594 C 528.546875 650.75 531.449219 651.636719 534.238281 652.855469 C 537.546875 654.296875 541.1875 655.96875 545.171875 657.871094 C 547.214844 658.851562 549.261719 659.667969 551.3125 660.324219 C 556.359375 661.929688 561.296875 661.15625 566.164062 658.824219 C 569.394531 657.277344 572.425781 655.851562 575.261719 654.542969 C 581.347656 651.730469 588.613281 649.355469 595.484375 649.722656 C 605.375 650.246094 614.566406 654.410156 623.335938 658.960938 C 628.40625 661.585938 633.84375 661.859375 639.65625 659.785156 C 641.195312 659.234375 642.527344 658.695312 643.648438 658.167969 C 647.378906 656.414062 651.101562 654.699219 654.820312 653.019531 C 659.8125 650.769531 665.625 649.203125 671.003906 649.976562 C 677.769531 650.941406 683.953125 654.597656 689.441406 658.730469 C 692.121094 660.746094 694.902344 661.65625 698.265625 661.417969 C 703.226562 661.0625 707.398438 658.890625 710.785156 654.910156 C 715.878906 648.917969 717.519531 640.691406 716.417969 633.019531 C 714.238281 617.894531 703.707031 606.386719 689.539062 600.667969 C 689.441406 600.625 689.339844 600.625 689.238281 600.65625 C 689.136719 600.691406 689.058594 600.753906 689 600.84375 C 687.175781 603.835938 685.410156 606.125 682.328125 608.164062 Z M 577.230469 665.285156 C 576.246094 665.78125 575.222656 666.207031 574.273438 666.792969 C 574.125 666.886719 574.054688 667.019531 574.066406 667.191406 C 574.882812 679.3125 575.757812 691.570312 576.695312 703.960938 C 579.203125 737.179688 581.558594 769.03125 583.757812 799.519531 C 583.769531 799.691406 583.839844 799.835938 583.96875 799.957031 C 584.09375 800.074219 584.246094 800.132812 584.417969 800.132812 L 605.601562 800.085938 C 605.816406 800.082031 606.003906 800.011719 606.160156 799.863281 C 606.316406 799.71875 606.402344 799.539062 606.417969 799.324219 L 616.074219 668.601562 C 616.082031 668.476562 616.046875 668.363281 615.96875 668.261719 C 615.691406 667.902344 615.339844 667.578125 614.921875 667.296875 C 612.089844 665.375 609.585938 663.980469 607.414062 663.109375 C 604.394531 661.894531 600.996094 661.007812 597.222656 660.453125 C 590.523438 659.464844 583.242188 662.242188 577.230469 665.285156 Z M 642.007812 775.4375 C 649.9375 738.042969 658.058594 699.890625 666.363281 660.980469 C 666.410156 660.757812 666.320312 660.636719 666.09375 660.621094 C 665.53125 660.589844 664.960938 660.660156 664.386719 660.832031 C 661.585938 661.679688 659.175781 662.574219 657.15625 663.519531 C 652.628906 665.636719 648.5 667.453125 644.769531 668.972656 C 638.855469 671.382812 632.902344 672.449219 626.800781 670.972656 C 626.609375 670.925781 626.46875 670.992188 626.386719 671.171875 C 626.265625 671.433594 626.191406 671.699219 626.171875 671.96875 C 623.789062 703.460938 621.71875 731.183594 619.960938 755.128906 C 618.851562 770.320312 617.742188 785.113281 616.632812 799.511719 C 616.621094 799.660156 616.667969 799.785156 616.765625 799.894531 C 616.867188 800.003906 616.988281 800.058594 617.136719 800.054688 L 636.164062 800.066406 C 636.355469 800.066406 636.523438 800.003906 636.671875 799.882812 C 636.816406 799.765625 636.910156 799.609375 636.945312 799.425781 C 638.648438 791.308594 640.335938 783.316406 642.007812 775.4375 Z M 528.898438 662.121094 C 527.515625 661.578125 526.046875 661.125 524.5 660.753906 C 524.417969 660.734375 524.339844 660.734375 524.257812 660.753906 C 524.179688 660.773438 524.105469 660.808594 524.042969 660.859375 C 523.980469 660.910156 523.933594 660.972656 523.898438 661.046875 C 523.863281 661.121094 523.851562 661.199219 523.855469 661.28125 C 523.878906 661.855469 523.949219 662.410156 524.0625 662.941406 C 533.90625 708.890625 543.574219 754.398438 553.066406 799.464844 C 553.105469 799.648438 553.199219 799.800781 553.34375 799.921875 C 553.492188 800.039062 553.660156 800.101562 553.851562 800.101562 L 572.90625 800.078125 C 573.359375 800.078125 573.570312 799.851562 573.539062 799.398438 C 572.992188 791.804688 572.363281 783.304688 571.65625 773.890625 C 568.976562 738.3125 566.460938 704.675781 564.117188 672.980469 C 564.078125 672.4375 564.011719 671.898438 563.917969 671.359375 C 563.851562 670.972656 563.625 670.824219 563.242188 670.917969 C 558.851562 671.992188 554.515625 671.957031 550.234375 670.820312 C 543.113281 668.921875 536.160156 664.957031 528.898438 662.121094 Z M 506.878906 666.851562 C 501.664062 670.554688 496.152344 672.488281 489.726562 671.546875 C 489.582031 671.527344 489.515625 671.585938 489.519531 671.730469 C 489.53125 672.058594 489.578125 672.390625 489.660156 672.726562 C 498.898438 712.359375 508.183594 752.289062 517.511719 792.523438 C 518.355469 796.148438 520.328125 798.484375 523.4375 799.53125 C 524.851562 800.003906 527.066406 800.210938 530.085938 800.144531 C 534.101562 800.058594 538.027344 800.046875 541.871094 800.109375 C 541.964844 800.109375 542.054688 800.089844 542.144531 800.050781 C 542.230469 800.011719 542.300781 799.953125 542.363281 799.878906 C 542.421875 799.808594 542.464844 799.722656 542.488281 799.632812 C 542.511719 799.539062 542.511719 799.445312 542.492188 799.351562 L 513.503906 663.105469 C 513.488281 663.027344 513.449219 662.964844 513.382812 662.917969 C 513.316406 662.875 513.242188 662.859375 513.164062 662.871094 C 512.792969 662.929688 512.445312 663.066406 512.125 663.273438 C 510.367188 664.425781 508.621094 665.617188 506.878906 666.851562 Z M 677.210938 663.078125 C 677.105469 663.015625 676.996094 663.003906 676.878906 663.039062 C 676.765625 663.078125 676.683594 663.152344 676.636719 663.265625 C 676.421875 663.78125 676.257812 664.316406 676.144531 664.867188 C 666.585938 709.679688 657.027344 754.515625 647.46875 799.375 C 647.449219 799.460938 647.453125 799.546875 647.472656 799.632812 C 647.492188 799.71875 647.53125 799.796875 647.585938 799.863281 C 647.640625 799.933594 647.710938 799.984375 647.789062 800.023438 C 647.871094 800.0625 647.953125 800.082031 648.042969 800.082031 C 652.726562 800.046875 657.609375 800.046875 662.699219 800.085938 C 666.144531 800.109375 669.121094 798.816406 671.03125 795.988281 C 671.554688 795.210938 672.167969 793.320312 672.871094 790.3125 C 682.007812 751.125 691.191406 711.703125 700.425781 672.046875 C 700.503906 671.710938 700.371094 671.5625 700.027344 671.597656 C 699.019531 671.710938 697.9375 671.773438 696.785156 671.78125 C 691.390625 671.820312 686.621094 669.6875 682.316406 666.515625 C 680.726562 665.34375 679.023438 664.199219 677.210938 663.078125 Z M 677.210938 663.078125 " fill-opacity="1" fill-rule="nonzero"/></g></svg>