<svg xmlns="http://www.w3.org/2000/svg" xmlns:xlink="http://www.w3.org/1999/xlink" width="1587" zoomAndPan="magnify" viewBox="0 0 1190.25 1683.749949" height="2245" preserveAspectRatio="xMidYMid meet" version="1.0"><defs><clipPath id="7eb1a3aac7"><path d="M 0 0.40625 L 1189.5 0.40625 L 1189.5 1683.09375 L 0 1683.09375 Z M 0 0.40625 " clip-rule="nonzero"/></clipPath><clipPath id="903abab489"><path d="M 515 893 L 669 893 L 669 970.46875 L 515 970.46875 Z M 515 893 " clip-rule="nonzero"/></clipPath><clipPath id="62f969ecc4"><path d="M 481.832031 681 L 490 681 L 490 697 L 481.832031 697 Z M 481.832031 681 " clip-rule="nonzero"/></clipPath></defs><g clip-path="url(#7eb1a3aac7)"><path fill="#ffffff" d="M 0 0.40625 L 1189.5 0.40625 L 1189.5 1683.09375 L 0 1683.09375 Z M 0 0.40625 " fill-opacity="1" fill-rule="nonzero"/><path fill="#ffffff" d="M 0 0.40625 L 1189.5 0.40625 L 1189.5 1683.09375 L 0 1683.09375 Z M 0 0.40625 " fill-opacity="1" fill-rule="nonzero"/></g><path fill="#000000" d="M 504.789062 671.699219 C 502.652344 672.765625 500.4375 673.757812 498.453125 674.976562 C 496.390625 676.273438 496.085938 678.636719 495.472656 680.695312 C 495.167969 681.839844 495.015625 682.984375 494.710938 684.128906 C 494.558594 684.664062 494.328125 685.195312 494.023438 685.652344 C 493.488281 686.339844 492.953125 686.265625 492.722656 685.425781 C 491.730469 682.222656 490.96875 679.019531 491.65625 675.589844 C 492.265625 672.917969 493.945312 671.011719 496.390625 669.867188 C 499.445312 668.421875 502.726562 668.191406 506.085938 668.800781 C 506.546875 668.878906 506.925781 668.953125 507.386719 668.953125 C 510.441406 669.183594 511.660156 668.191406 512.121094 665.140625 C 512.5 662.699219 513.417969 660.414062 514.714844 658.355469 C 516.167969 656.066406 518.304688 654.695312 520.902344 654.082031 C 522.582031 653.625 524.335938 653.472656 525.941406 653.09375 C 527.46875 652.710938 528.917969 652.175781 530.371094 651.644531 C 531.59375 651.109375 531.972656 650.042969 531.898438 648.746094 C 531.820312 647.679688 531.898438 646.609375 531.820312 645.46875 C 531.746094 643.179688 532.890625 641.578125 534.800781 640.511719 C 537.625 638.832031 540.679688 638.527344 543.808594 638.375 C 546.710938 638.222656 549.691406 638.222656 552.589844 637.917969 C 555.1875 637.6875 557.25 636.390625 558.699219 634.105469 C 562.367188 628.234375 567.710938 624.878906 574.355469 623.351562 C 575.195312 623.199219 576.109375 623.125 577.027344 623.125 C 579.394531 623.277344 581.304688 622.207031 582.984375 620.683594 C 583.976562 619.769531 584.96875 618.777344 585.960938 617.863281 C 588.328125 615.5 591.078125 614.050781 594.4375 613.820312 C 596.730469 613.667969 599.097656 613.589844 601.386719 613.515625 C 602.226562 613.515625 602.992188 613.515625 603.21875 612.449219 C 603.449219 611.226562 602.835938 609.855469 601.921875 609.472656 C 600.546875 608.941406 599.171875 609.320312 598.257812 610.464844 C 597.949219 610.769531 597.796875 611.304688 597.414062 611.457031 C 596.882812 611.761719 596.042969 612.144531 595.660156 611.914062 C 595.203125 611.609375 594.742188 610.695312 594.894531 610.160156 C 595.660156 606.5 597.644531 603.984375 601.539062 603.144531 C 606.960938 602 611.542969 603.679688 614.367188 608.023438 C 614.75 608.636719 615.054688 609.320312 615.207031 610.007812 C 615.285156 610.390625 614.902344 610.921875 614.75 611.378906 C 614.367188 611.152344 613.910156 611 613.527344 610.769531 C 611.925781 609.320312 610.550781 607.71875 608.871094 606.5 C 606.425781 604.667969 603.601562 604.058594 600.546875 604.746094 C 598.636719 605.203125 597.261719 606.421875 596.195312 607.949219 C 595.8125 608.484375 595.964844 609.398438 595.8125 610.082031 C 595.964844 610.160156 596.117188 610.238281 596.269531 610.3125 C 596.882812 609.855469 597.492188 609.472656 598.027344 609.015625 C 599.707031 607.492188 601.769531 607.035156 603.984375 607.261719 C 605.96875 607.492188 607.191406 608.789062 607.953125 610.542969 C 608.105469 610.921875 608.183594 611.304688 608.410156 611.761719 C 608.71875 611.609375 608.945312 611.53125 609.175781 611.378906 C 609.9375 610.769531 610.777344 610.464844 611.695312 611.074219 C 612.613281 611.761719 612.839844 612.675781 612.613281 613.746094 C 612 615.957031 610.625 617.480469 608.488281 618.320312 C 606.503906 619.082031 604.363281 619.082031 602.304688 618.777344 C 599.628906 618.320312 596.957031 617.863281 594.207031 617.40625 C 589.78125 616.71875 586.800781 618.851562 584.664062 622.4375 C 584.207031 623.199219 583.746094 624.039062 583.289062 624.878906 C 581.839844 627.316406 579.699219 628.460938 576.875 628.460938 C 576.109375 628.460938 575.269531 628.460938 574.507812 628.460938 C 574.507812 628.539062 574.429688 628.691406 574.429688 628.765625 C 578.171875 629.988281 581.992188 631.28125 585.734375 632.425781 C 587.183594 632.882812 588.710938 632.960938 590.238281 633.035156 C 590.695312 633.035156 591.460938 632.578125 591.613281 632.199219 C 592.910156 627.929688 596.421875 627.316406 600.394531 628.308594 C 602.378906 628.765625 604.363281 629.683594 606.199219 630.597656 C 609.710938 632.351562 613.453125 633.34375 617.347656 633.953125 C 618.261719 634.105469 618.875 633.953125 619.179688 632.960938 C 619.789062 630.976562 621.164062 629.988281 623.148438 629.527344 C 624.066406 629.300781 624.984375 629.070312 626.203125 628.84375 C 624.449219 627.164062 622.617188 626.097656 620.324219 626.023438 C 619.636719 626.023438 618.875 626.097656 618.1875 626.175781 C 616.886719 626.25 615.589844 626.402344 614.367188 626.25 C 611.621094 625.945312 610.550781 623.808594 611.925781 621.371094 C 612.078125 621.066406 612.230469 620.761719 612.460938 620.53125 C 614.214844 618.320312 614.671875 615.878906 614.214844 613.210938 C 614.140625 612.828125 614.367188 612.449219 614.519531 612.066406 C 614.828125 612.296875 615.359375 612.449219 615.515625 612.828125 C 616.886719 615.117188 617.5 617.480469 616.507812 620.074219 C 616.199219 620.914062 615.820312 621.75 615.4375 622.894531 C 616.507812 622.894531 617.421875 622.972656 618.414062 622.894531 C 622.921875 622.667969 626.96875 623.886719 630.175781 627.089844 C 631.167969 628.082031 631.929688 629.300781 632.464844 630.597656 C 633.535156 633.34375 635.597656 635.171875 637.582031 637.230469 C 637.734375 637.382812 638.191406 637.535156 638.421875 637.460938 C 643.003906 636.542969 647.050781 637.535156 650.5625 641.042969 C 661.023438 623.960938 670.417969 606.421875 680.804688 589.496094 C 672.632812 606.652344 663.546875 623.351562 655.222656 640.433594 C 656.289062 640.738281 656.445312 640.050781 656.671875 639.519531 C 658.351562 635.859375 659.878906 632.199219 661.789062 628.613281 C 666.21875 620.300781 670.800781 612.144531 675.230469 603.90625 C 676.601562 601.316406 677.824219 598.570312 679.199219 595.976562 C 680.191406 594.070312 681.335938 592.238281 682.484375 590.410156 C 683.246094 589.191406 683.855469 588.960938 685.230469 589.570312 C 687.21875 590.5625 689.203125 591.707031 691.035156 592.925781 C 691.492188 593.230469 691.644531 593.992188 691.875 594.605469 C 691.339844 594.832031 690.730469 595.0625 690.195312 595.214844 C 689.964844 595.289062 689.660156 595.214844 689.355469 595.136719 C 688.058594 599.789062 685.765625 603.90625 683.550781 608.023438 C 676.984375 620.148438 670.417969 632.199219 663.851562 644.324219 C 663.621094 644.78125 663.390625 645.3125 663.238281 645.773438 C 663.316406 645.847656 663.390625 645.847656 663.546875 645.925781 C 667.972656 637.6875 672.402344 629.527344 676.910156 621.292969 C 681.414062 613.132812 685.539062 604.824219 690.347656 596.816406 C 690.5 596.890625 690.730469 596.96875 690.882812 597.042969 C 690.730469 597.578125 690.578125 598.113281 690.347656 598.644531 C 687.21875 605.203125 684.085938 611.761719 680.957031 618.320312 C 675.535156 629.605469 670.113281 640.890625 664.613281 652.101562 C 664.386719 652.558594 664.234375 652.941406 664.003906 653.472656 C 666.140625 653.855469 668.203125 654.234375 670.1875 654.464844 C 675.382812 655.152344 679.351562 657.589844 681.566406 662.546875 C 682.175781 663.921875 682.941406 665.292969 683.628906 666.667969 C 684.085938 667.582031 684.164062 668.574219 683.398438 669.335938 C 682.710938 670.097656 681.71875 670.175781 680.804688 669.867188 C 679.582031 669.410156 678.4375 668.648438 677.214844 668.113281 C 676.832031 667.960938 676.222656 667.886719 675.992188 668.113281 C 671.945312 671.394531 667.441406 671.699219 662.707031 670.019531 C 660.566406 669.257812 658.351562 668.496094 656.214844 667.734375 C 652.394531 666.285156 648.730469 665.828125 644.761719 667.277344 C 640.101562 669.03125 635.292969 670.328125 630.632812 672.003906 C 628.265625 672.84375 625.824219 673.988281 623.683594 675.359375 C 619.484375 678.105469 614.75 679.097656 609.863281 679.476562 C 603.21875 679.933594 596.730469 679.402344 590.621094 676.65625 C 588.101562 675.511719 585.65625 674.140625 583.519531 672.460938 C 581.992188 671.316406 580.617188 669.640625 579.625 667.960938 C 577.105469 663.921875 572.292969 661.785156 567.636719 662.777344 C 564.046875 663.539062 560.609375 664.835938 557.554688 666.820312 C 555.953125 667.886719 554.273438 668.878906 552.589844 669.867188 C 545.03125 674.140625 537.394531 674.214844 529.605469 670.480469 C 527.164062 669.257812 525.253906 667.351562 523.421875 665.371094 C 522.125 663.921875 520.597656 663.082031 518.839844 662.472656 C 518.078125 662.167969 517.390625 662.242188 516.855469 662.851562 C 516.015625 663.84375 515.023438 664.914062 514.488281 666.132812 C 513.417969 668.648438 511.96875 670.632812 509.140625 671.242188 C 508.988281 671.316406 508.761719 671.394531 508.605469 671.46875 C 507.460938 673.148438 506.238281 674.824219 505.246094 676.578125 C 504.789062 677.34375 504.789062 678.410156 504.636719 679.324219 C 505.554688 679.402344 506.46875 679.707031 507.308594 679.628906 C 508.683594 679.476562 510.058594 679.097656 511.433594 678.789062 C 514.640625 678.105469 517.847656 677.34375 521.054688 676.65625 C 521.664062 676.503906 522.277344 676.503906 522.886719 676.578125 C 527.085938 676.960938 531.285156 677.1875 535.488281 677.722656 C 537.089844 677.875 538.617188 678.484375 540.070312 679.019531 C 545.183594 681.003906 550.300781 683.136719 555.722656 684.128906 C 558.699219 684.664062 561.753906 684.890625 564.808594 685.273438 C 565.648438 685.347656 566.488281 685.347656 567.328125 685.652344 C 569.238281 686.265625 569.773438 688.246094 568.320312 689.542969 C 565.800781 691.679688 563.054688 693.660156 559.617188 693.507812 C 551.445312 693.28125 543.960938 690.992188 538.007812 684.96875 C 537.394531 684.359375 536.785156 683.824219 536.175781 683.214844 C 533.195312 680.011719 529.378906 679.324219 525.332031 679.402344 C 524.414062 679.402344 523.34375 679.859375 522.503906 680.390625 C 520.214844 681.917969 517.921875 683.519531 515.785156 685.273438 C 513.417969 687.101562 510.898438 688.324219 507.84375 688.324219 C 503.1875 688.324219 497.992188 683.59375 501.125 677.648438 C 501.660156 676.65625 502.191406 675.742188 502.804688 674.902344 C 503.261719 673.453125 503.949219 672.691406 504.789062 671.699219 Z M 651.328125 650.347656 C 649.1875 651.566406 646.820312 651.71875 644.53125 651.1875 C 642.925781 650.882812 641.324219 650.347656 639.796875 649.8125 C 635.980469 648.515625 632.085938 648.210938 628.191406 649.507812 C 627.578125 649.738281 626.96875 650.042969 626.585938 650.5 C 622.996094 655 618.339844 656.371094 612.839844 655.609375 C 608.640625 655 604.898438 653.09375 601.234375 651.035156 C 596.957031 648.59375 592.679688 647.90625 588.328125 650.957031 C 587.871094 651.261719 587.414062 651.492188 586.953125 651.71875 C 582.066406 654.007812 577.179688 654.3125 572.445312 651.492188 C 570.765625 650.5 569.007812 650.117188 567.175781 650.347656 C 563.742188 650.882812 560.378906 651.492188 556.945312 651.949219 C 552.972656 652.480469 549.15625 652.023438 545.644531 650.042969 C 543.808594 649.050781 542.359375 647.679688 541.671875 645.695312 C 541.367188 644.855469 540.910156 644.550781 540.144531 644.476562 C 539.761719 644.398438 539.382812 644.324219 538.921875 644.324219 C 535.792969 643.867188 534.265625 645.085938 534.1875 648.289062 C 534.113281 649.433594 534.035156 650.652344 533.652344 651.71875 C 532.660156 654.695312 531.515625 657.667969 528.613281 659.496094 C 531.058594 661.25 536.9375 663.003906 540.296875 663.160156 C 546.484375 663.464844 552.589844 662.699219 558.472656 660.640625 C 564.351562 658.660156 570.230469 658.203125 576.1875 660.261719 C 581.683594 662.089844 587.105469 663.996094 592.527344 665.980469 C 596.652344 667.503906 600.851562 668.648438 605.28125 669.105469 C 610.855469 669.640625 616.429688 670.402344 621.929688 668.878906 C 630.710938 666.4375 639.644531 664.148438 648.195312 660.871094 C 651.863281 659.421875 655.605469 659.117188 659.421875 660.183594 C 661.710938 660.792969 663.925781 661.632812 666.140625 662.472656 C 667.972656 663.160156 669.578125 663.160156 671.105469 661.863281 C 671.714844 661.328125 672.402344 660.945312 673.167969 660.566406 C 673.855469 660.183594 673.855469 659.726562 673.546875 659.191406 C 672.863281 657.820312 671.640625 656.90625 670.1875 656.753906 C 668.433594 656.523438 666.523438 656.449219 664.84375 656.828125 C 660.566406 657.820312 656.976562 656.828125 654 653.625 C 653.082031 652.636719 652.320312 651.566406 651.328125 650.347656 Z M 623.988281 633.953125 C 623.914062 634.867188 623.835938 635.707031 623.761719 636.542969 C 623.457031 638.910156 621.773438 640.359375 619.40625 640.433594 C 618.644531 640.433594 617.882812 640.433594 617.117188 640.207031 C 614.902344 639.441406 612.535156 638.832031 610.472656 637.765625 C 607.953125 636.46875 605.664062 634.636719 603.21875 633.265625 C 601.386719 632.273438 599.476562 631.4375 597.492188 630.824219 C 595.890625 630.367188 595.125 631.054688 595.125 632.730469 C 595.046875 636.925781 592.835938 638.375 589.550781 639.136719 C 585.960938 639.898438 582.527344 639.441406 579.164062 638.070312 C 576.722656 637.078125 574.355469 635.859375 571.988281 634.636719 C 568.933594 633.113281 565.726562 632.65625 562.441406 633.800781 C 561.375 634.179688 560.609375 634.714844 560.152344 635.78125 C 559.007812 638.527344 556.945312 640.585938 554.730469 642.417969 C 554.5 642.570312 554.347656 642.796875 554.117188 642.949219 C 554.730469 643.101562 555.1875 643.027344 555.644531 643.027344 C 558.320312 642.722656 561.066406 642.1875 563.742188 642.113281 C 568.476562 641.960938 572.523438 643.40625 575.195312 647.679688 C 576.035156 649.050781 577.332031 649.660156 578.859375 649.964844 C 581.761719 650.5 584.511719 649.964844 587.183594 648.898438 C 590.46875 647.601562 593.828125 646.457031 597.1875 645.390625 C 600.394531 644.398438 603.675781 644.628906 606.886719 645.695312 C 607.953125 646.078125 609.097656 646.457031 610.167969 646.839844 C 613.910156 648.136719 617.5 647.753906 621.011719 646 C 624.601562 644.171875 628.34375 642.492188 632.007812 640.738281 C 632.160156 640.664062 632.3125 640.511719 632.542969 640.359375 C 630.710938 639.367188 629.183594 638.222656 628.34375 636.316406 C 627.808594 634.789062 626.050781 633.800781 623.988281 633.953125 Z M 623.609375 648.441406 C 625.898438 647.449219 628.496094 646.304688 631.089844 645.3125 C 633.457031 644.476562 635.902344 644.398438 638.347656 644.933594 C 639.644531 645.238281 640.789062 645.773438 642.085938 646 C 642.699219 646.152344 643.460938 645.925781 643.996094 645.542969 C 644.226562 645.390625 644.226562 644.476562 643.996094 644.019531 C 643.613281 643.253906 642.851562 643.253906 642.085938 643.636719 C 641.78125 643.789062 641.476562 643.867188 641.171875 643.789062 C 638.574219 643.179688 635.980469 643.484375 633.382812 643.941406 C 629.640625 644.703125 626.203125 646.230469 623.609375 648.441406 Z M 554.5 647.449219 C 554.5 647.601562 554.425781 647.679688 554.425781 647.832031 C 555.1875 648.667969 556.332031 648.59375 557.324219 648.515625 C 560.609375 648.210938 563.894531 647.753906 567.175781 647.375 C 567.558594 647.296875 567.863281 646.914062 568.246094 646.609375 C 567.941406 646.382812 567.558594 645.925781 567.253906 646 C 565.574219 646.152344 563.816406 646.230469 562.214844 646.839844 C 560 647.601562 557.859375 647.90625 555.644531 647.527344 C 555.265625 647.375 554.882812 647.449219 554.5 647.449219 Z M 542.742188 667.582031 C 542.742188 667.65625 542.816406 667.808594 542.816406 667.886719 C 543.046875 667.886719 543.277344 667.960938 543.503906 667.960938 C 546.789062 668.039062 549.917969 667.046875 552.972656 665.980469 C 553.125 665.902344 553.277344 665.902344 553.433594 665.75 C 553.660156 665.523438 553.8125 665.21875 554.042969 664.914062 C 553.660156 664.835938 553.277344 664.605469 552.972656 664.605469 C 552.363281 664.757812 551.75 665.066406 551.140625 665.21875 C 548.925781 665.828125 546.710938 666.4375 544.421875 667.046875 C 543.886719 667.351562 543.351562 667.429688 542.742188 667.582031 Z M 592.070312 672.308594 C 592.070312 672.386719 592.070312 672.386719 592.070312 672.460938 C 593.980469 673.070312 595.890625 673.757812 597.796875 674.140625 C 599.785156 674.519531 601.769531 674.597656 603.753906 674.671875 C 604.136719 674.671875 604.59375 674.292969 605.050781 674.140625 C 604.59375 673.988281 604.136719 673.605469 603.675781 673.605469 C 602.152344 673.527344 600.546875 673.605469 599.019531 673.453125 C 596.730469 673.148438 594.4375 672.691406 592.070312 672.308594 Z M 548.851562 686.492188 C 549.613281 686.796875 550.378906 687.179688 551.140625 687.484375 C 553.660156 688.476562 556.332031 688.550781 558.929688 688.78125 C 559.539062 688.855469 560.074219 689.238281 560.6875 689.3125 C 561.21875 689.390625 561.90625 689.390625 562.441406 689.238281 C 562.59375 689.160156 562.671875 688.019531 562.519531 687.941406 C 561.984375 687.710938 561.066406 687.484375 560.839844 687.789062 C 559.847656 688.703125 558.777344 688.550781 557.707031 688.476562 C 554.578125 688.324219 551.675781 687.484375 548.851562 686.492188 Z M 608.335938 649.433594 C 611.007812 651.492188 616.660156 653.320312 619.027344 651.261719 C 617.421875 651.1875 615.667969 651.261719 613.832031 650.957031 C 612.078125 650.730469 610.398438 650.042969 608.335938 649.433594 Z M 549.078125 647.832031 C 549.460938 647.601562 550.222656 647.296875 550.605469 646.761719 C 550.910156 646.304688 549.765625 645.3125 548.925781 645.238281 C 548.164062 645.160156 547.476562 645.390625 547.398438 646.230469 C 547.246094 647.066406 547.855469 647.527344 549.078125 647.832031 Z M 528.308594 664.378906 C 529.226562 666.207031 533.273438 668.34375 535.027344 667.503906 C 532.738281 666.4375 530.445312 665.371094 528.308594 664.378906 Z M 658.351562 663.691406 C 658.277344 663.84375 658.277344 663.996094 658.199219 664.148438 C 660.261719 664.914062 662.398438 665.675781 664.539062 666.4375 C 664.691406 666.511719 664.917969 666.207031 665.074219 666.132812 C 664.917969 665.902344 664.84375 665.597656 664.613281 665.523438 C 663.773438 665.21875 662.859375 664.988281 662.019531 664.683594 C 660.71875 664.453125 659.574219 664.074219 658.351562 663.691406 Z M 506.316406 683.519531 C 507.996094 684.050781 509.523438 683.671875 510.972656 682.832031 C 511.203125 682.679688 511.355469 682.296875 511.585938 682.070312 C 511.203125 681.992188 510.820312 681.765625 510.515625 681.917969 C 509.140625 682.375 507.765625 682.984375 506.316406 683.519531 Z M 569.46875 630.292969 C 569.46875 630.367188 569.46875 630.445312 569.46875 630.445312 C 570.765625 630.902344 572.140625 631.359375 573.4375 631.664062 C 573.742188 631.742188 574.125 631.511719 574.429688 631.359375 C 574.203125 631.054688 574.050781 630.671875 573.820312 630.445312 C 573.667969 630.292969 573.285156 630.214844 573.054688 630.214844 C 571.835938 630.292969 570.6875 630.292969 569.46875 630.292969 Z M 647.890625 644.550781 C 647.433594 645.238281 646.820312 645.621094 646.898438 646 C 646.976562 646.382812 647.585938 646.914062 647.890625 646.914062 C 648.273438 646.914062 648.882812 646.304688 648.882812 646 C 648.960938 645.621094 648.425781 645.160156 647.890625 644.550781 Z M 610.246094 674.519531 C 610.246094 674.445312 610.246094 674.292969 610.167969 674.214844 C 609.863281 674.140625 609.480469 673.835938 609.175781 673.910156 C 608.871094 673.988281 608.640625 674.292969 608.335938 674.519531 C 608.640625 674.671875 608.945312 675.054688 609.175781 675.054688 C 609.558594 675.054688 609.9375 674.75 610.246094 674.519531 Z M 610.246094 674.519531 " fill-opacity="1" fill-rule="nonzero"/><path fill="#000000" d="M 700.199219 687.867188 C 697.066406 688.398438 695.386719 686.796875 694.472656 684.203125 C 691.875 685.121094 689.277344 686.113281 686.683594 686.949219 C 682.710938 688.171875 678.589844 688.628906 674.386719 688.09375 C 672.097656 687.789062 669.960938 686.949219 668.050781 685.578125 C 666.445312 684.511719 664.765625 683.59375 663.085938 682.605469 C 659.652344 680.621094 655.910156 680.542969 652.242188 681.382812 C 650.867188 681.6875 649.496094 682.375 648.425781 683.289062 C 643.308594 687.710938 637.503906 690.6875 630.863281 692.210938 C 626.203125 693.28125 621.546875 692.667969 616.964844 691.753906 C 611.007812 690.535156 605.050781 689.085938 599.019531 687.941406 C 592.988281 686.875 586.878906 686.417969 580.84375 687.636719 C 578.9375 688.019531 577.027344 688.019531 575.117188 688.171875 C 574.582031 688.246094 573.972656 688.09375 573.363281 688.09375 C 573.363281 687.941406 573.285156 687.867188 573.285156 687.710938 C 573.820312 687.484375 574.355469 687.101562 574.890625 686.949219 C 581.53125 685.121094 588.175781 683.0625 595.046875 682.449219 C 604.59375 681.535156 614.0625 682.449219 623.300781 685.195312 C 624.753906 685.652344 626.128906 686.035156 627.578125 686.417969 C 634.832031 688.246094 641.019531 686.113281 646.363281 681.078125 C 647.433594 680.085938 648.730469 679.25 650.027344 678.714844 C 656.136719 676.273438 662.246094 676.503906 668.585938 678.257812 C 675.226562 680.085938 682.101562 680.238281 688.898438 679.324219 C 690.347656 679.097656 691.722656 678.410156 693.097656 677.875 C 693.402344 677.800781 693.632812 677.265625 693.707031 676.960938 C 693.9375 674.902344 692.5625 672.996094 690.117188 672.691406 C 688.515625 672.460938 686.757812 672.765625 685.078125 672.765625 C 684.085938 672.84375 683.015625 672.84375 682.023438 672.917969 C 681.949219 672.765625 681.949219 672.613281 681.871094 672.460938 C 682.175781 672.15625 682.484375 671.773438 682.863281 671.621094 C 685.15625 670.328125 687.597656 669.5625 690.195312 669.488281 C 694.320312 669.335938 698.214844 672.539062 698.824219 676.578125 C 699.128906 678.484375 699.207031 680.46875 699.28125 682.449219 C 699.359375 683.289062 699.511719 683.671875 700.429688 683.441406 C 700.429688 682.222656 701.34375 682.449219 702.03125 682.605469 C 705.695312 683.214844 708.0625 686.796875 707.070312 690.382812 C 706.078125 694.195312 703.253906 696.40625 700.273438 698.464844 C 699.894531 698.695312 699.511719 699.152344 699.511719 699.609375 C 698.746094 704.640625 698.136719 709.675781 697.375 714.707031 C 696.992188 717.375 696.226562 719.894531 694.167969 721.953125 C 693.554688 722.5625 693.402344 723.78125 693.328125 724.695312 C 693.019531 727.59375 692.792969 730.492188 692.5625 733.464844 C 692.410156 735.21875 691.722656 736.667969 690.347656 737.890625 C 689.964844 738.269531 689.738281 738.878906 689.738281 739.414062 C 689.660156 741.167969 689.8125 742.921875 689.660156 744.675781 C 689.585938 745.742188 689.277344 746.886719 688.746094 747.878906 C 688.132812 749.023438 686.683594 749.175781 685.84375 748.488281 C 685.078125 747.800781 685.078125 746.734375 686.148438 745.820312 C 687.140625 744.980469 687.523438 743.988281 687.445312 742.769531 C 687.445312 741.320312 687.21875 739.871094 687.445312 738.421875 C 687.597656 737.355469 687.980469 736.058594 688.667969 735.296875 C 689.660156 734.230469 690.117188 733.085938 690.273438 731.789062 C 690.578125 728.816406 690.882812 725.839844 691.339844 722.867188 C 691.492188 721.875 691.875 720.808594 692.484375 720.046875 C 693.785156 718.292969 694.089844 716.308594 694.394531 714.171875 C 694.851562 710.511719 695.539062 706.851562 696.074219 703.269531 C 696.304688 701.667969 696.6875 700.066406 696.761719 698.386719 C 696.914062 696.558594 697.527344 695.261719 699.433594 694.574219 C 701.726562 693.660156 703.480469 692.136719 704.324219 689.773438 C 705.085938 687.636719 704.246094 685.730469 702.03125 684.738281 C 702.03125 684.738281 701.953125 684.816406 701.953125 684.816406 C 702.414062 685.652344 703.253906 686.570312 703.175781 687.253906 C 702.871094 688.78125 702.414062 690.457031 700.886719 691.296875 C 698.441406 692.515625 696 693.890625 693.328125 694.652344 C 685.230469 697.09375 676.910156 698.082031 668.507812 698.847656 C 636.511719 701.742188 604.441406 702.277344 572.292969 701.132812 C 558.394531 700.601562 544.421875 699.683594 530.523438 698.617188 C 518.457031 697.703125 506.46875 696.101562 494.785156 692.820312 C 493.105469 692.363281 491.503906 691.753906 489.898438 691.144531 C 489.058594 690.839844 488.296875 690.382812 487.609375 689.847656 C 486.460938 689.007812 485.394531 688.09375 485.773438 686.492188 C 486.15625 684.890625 487.457031 684.359375 488.828125 683.898438 C 489.058594 683.824219 489.441406 683.976562 489.667969 684.050781 C 489.59375 684.359375 489.515625 684.585938 489.363281 684.890625 C 489.289062 684.96875 489.210938 685.042969 489.058594 685.121094 C 487.074219 686.796875 487.148438 687.558594 489.59375 688.703125 C 493.5625 690.535156 497.839844 691.527344 502.191406 692.210938 C 518.230469 694.726562 534.417969 696.101562 550.605469 696.941406 C 578.476562 698.234375 606.351562 698.617188 634.222656 697.398438 C 651.554688 696.632812 668.890625 695.414062 685.996094 692.515625 C 689.964844 691.832031 693.9375 690.839844 697.832031 689.847656 C 698.59375 689.695312 699.207031 689.085938 699.894531 688.703125 C 700.199219 688.171875 700.199219 688.019531 700.199219 687.867188 Z M 627.121094 689.390625 C 626.96875 689.3125 626.96875 689.3125 626.96875 689.3125 C 620.933594 689.007812 614.980469 688.324219 609.558594 685.273438 C 608.945312 684.96875 608.257812 685.121094 608.03125 685.882812 C 607.800781 686.644531 608.257812 687.101562 609.023438 687.253906 C 609.480469 687.332031 610.015625 687.332031 610.472656 687.40625 C 613.757812 688.019531 616.964844 688.78125 620.25 689.390625 C 622.460938 689.773438 624.753906 689.925781 627.121094 689.390625 Z M 676.144531 683.976562 C 679.964844 684.511719 683.78125 684.738281 687.445312 683.441406 C 687.75 683.367188 687.90625 682.832031 688.058594 682.449219 C 687.597656 682.375 687.140625 682.070312 686.757812 682.144531 C 683.246094 682.832031 679.886719 684.28125 676.144531 683.976562 Z M 693.554688 682.070312 C 693.554688 681.917969 693.554688 681.765625 693.554688 681.613281 C 693.171875 681.382812 692.792969 680.925781 692.484375 681.003906 C 692.027344 681.15625 691.644531 681.613281 691.1875 681.917969 C 691.492188 682.222656 691.800781 682.757812 692.105469 682.757812 C 692.640625 682.679688 693.097656 682.296875 693.554688 682.070312 Z M 602.074219 684.128906 C 601.769531 684.585938 601.386719 684.890625 601.464844 685.042969 C 601.539062 685.273438 601.921875 685.652344 602.152344 685.652344 C 602.378906 685.652344 602.683594 685.273438 602.914062 685.121094 C 602.683594 684.816406 602.457031 684.511719 602.074219 684.128906 Z M 602.074219 684.128906 " fill-opacity="1" fill-rule="nonzero"/><g clip-path="url(#903abab489)"><path fill="#000000" d="M 516.089844 893.605469 C 516.242188 894.671875 516.550781 895.664062 516.625 896.730469 C 517.234375 903.441406 517.695312 910.152344 518.457031 916.863281 C 518.917969 920.980469 519.601562 925.097656 520.367188 929.214844 C 520.597656 930.359375 521.4375 931.425781 522.046875 932.417969 C 522.65625 933.410156 523.496094 934.25 524.03125 935.316406 C 524.566406 936.308594 524.492188 937.300781 523.652344 938.214844 C 523.421875 938.519531 523.269531 938.976562 523.34375 939.359375 C 523.878906 942.867188 524.414062 946.375 524.949219 949.957031 C 525.101562 951.101562 525.636719 951.789062 526.628906 952.472656 C 527.851562 953.3125 528.917969 954.378906 530.140625 955.296875 C 530.371094 955.523438 530.675781 955.601562 530.980469 955.753906 C 545.566406 961.394531 560.761719 964.523438 576.1875 966.808594 C 584.28125 968.03125 592.375 967.648438 600.46875 967.421875 C 611.390625 967.191406 622.082031 965.054688 632.769531 963.148438 C 638.652344 962.082031 644.378906 960.785156 649.875 958.421875 C 652.550781 957.277344 655.144531 956.058594 657.742188 954.839844 C 658.125 954.683594 658.429688 954.074219 658.429688 953.617188 C 658.886719 950.1875 659.269531 946.753906 659.652344 943.324219 C 659.804688 942.101562 660.261719 940.882812 659.421875 939.585938 C 659.191406 939.28125 659.421875 938.367188 659.726562 937.910156 C 661.710938 935.394531 662.019531 932.417969 662.476562 929.445312 C 663.390625 923.574219 664.078125 917.625 664.996094 911.675781 C 665.683594 907.101562 666.601562 902.527344 667.441406 897.949219 C 667.515625 897.417969 667.746094 896.882812 667.898438 896.425781 C 668.050781 896.425781 668.203125 896.425781 668.355469 896.425781 C 668.355469 896.960938 668.507812 897.570312 668.433594 898.101562 C 667.972656 903.289062 667.285156 908.472656 666.980469 913.660156 C 666.523438 920.292969 666.21875 926.851562 665.835938 933.488281 C 665.757812 934.402344 665.757812 935.238281 665.757812 936.15625 C 665.605469 939.433594 664.84375 940.425781 661.558594 941.492188 C 661.558594 946.144531 661.484375 950.949219 661.558594 955.675781 C 661.558594 957.355469 660.796875 958.804688 659.191406 959.488281 C 651.710938 962.386719 644.074219 964.597656 636.359375 966.65625 C 628.34375 968.792969 620.09375 969.707031 611.773438 969.9375 C 605.511719 970.089844 599.25 970.46875 592.988281 970.242188 C 581.152344 969.785156 569.316406 969.480469 557.554688 967.648438 C 549.15625 966.351562 541.0625 963.761719 533.273438 960.40625 C 531.820312 959.792969 530.445312 958.878906 528.996094 958.117188 C 528.386719 957.8125 527.773438 957.582031 527.164062 957.355469 C 524.183594 956.285156 522.351562 954.457031 522.125 951.40625 C 521.816406 947.441406 521.207031 943.476562 521.511719 939.433594 C 521.511719 939.128906 521.207031 938.824219 520.976562 938.519531 C 520.367188 937.832031 519.527344 937.222656 519.070312 936.460938 C 517.464844 933.945312 516.777344 931.121094 516.625 928.148438 C 516.242188 920.75 515.710938 913.429688 515.328125 906.035156 C 515.175781 902.296875 515.25 898.5625 515.328125 894.824219 C 515.328125 894.441406 515.480469 894.0625 515.554688 893.757812 C 515.710938 893.605469 515.9375 893.605469 516.089844 893.605469 Z M 516.089844 893.605469 " fill-opacity="1" fill-rule="nonzero"/></g><path fill="#000000" d="M 509.292969 735.984375 C 509.523438 736.058594 509.828125 736.136719 510.058594 736.210938 C 517.769531 739.949219 526.09375 741.472656 534.570312 742.617188 C 551.90625 744.90625 569.390625 744.753906 586.800781 744.449219 C 604.976562 744.140625 623.148438 743.378906 641.324219 742.617188 C 653.617188 742.082031 665.835938 740.863281 677.902344 738.652344 C 678.4375 738.574219 678.894531 738.347656 679.429688 738.347656 C 679.808594 738.347656 680.191406 738.652344 680.574219 738.804688 C 680.269531 739.03125 680.039062 739.492188 679.734375 739.566406 C 672.632812 740.785156 665.453125 741.929688 658.351562 743.226562 C 629.71875 748.261719 600.851562 749.9375 571.835938 748.566406 C 555.035156 747.726562 538.3125 745.820312 521.816406 742.3125 C 518.078125 741.472656 514.488281 740.253906 511.128906 738.269531 C 510.363281 737.8125 509.675781 737.125 508.914062 736.515625 C 509.066406 736.289062 509.21875 736.136719 509.292969 735.984375 Z M 509.292969 735.984375 " fill-opacity="1" fill-rule="nonzero"/><path fill="#000000" d="M 511.433594 748.640625 C 518 749.785156 524.109375 750.929688 530.292969 751.921875 C 562.824219 757.105469 595.507812 758.324219 628.34375 757.257812 C 641.398438 756.800781 654.382812 755.503906 667.132812 752.53125 C 670.265625 751.84375 673.242188 750.546875 676.296875 749.554688 C 676.527344 749.480469 676.832031 749.25 677.0625 749.25 C 677.441406 749.25 677.75 749.480469 678.128906 749.554688 C 677.976562 749.9375 677.902344 750.472656 677.597656 750.546875 C 676.222656 751.082031 674.847656 751.617188 673.394531 752.074219 C 661.332031 756.191406 648.808594 758.25 636.207031 759.699219 C 617.117188 761.910156 597.949219 762.519531 578.785156 760.996094 C 564.886719 759.925781 550.910156 758.554688 537.167969 755.886719 C 528.84375 754.207031 520.597656 751.996094 512.578125 749.097656 C 512.347656 749.023438 512.042969 748.871094 511.433594 748.640625 Z M 511.433594 748.640625 " fill-opacity="1" fill-rule="nonzero"/><path fill="#000000" d="M 504.867188 721.339844 C 508.074219 723.019531 511.507812 723.859375 514.945312 724.695312 C 522.964844 726.679688 531.210938 727.898438 539.457031 728.28125 C 554.042969 729.042969 568.628906 729.957031 583.289062 730.265625 C 600.164062 730.644531 617.039062 730.417969 633.917969 729.425781 C 638.574219 729.121094 643.308594 729.425781 648.042969 729.195312 C 657.894531 728.816406 667.667969 728.050781 677.367188 726.070312 C 679.503906 725.613281 681.566406 724.847656 683.628906 724.316406 C 684.011719 724.238281 684.542969 724.390625 685.003906 724.46875 C 684.699219 724.773438 684.46875 725.382812 684.085938 725.460938 C 680.117188 726.449219 676.222656 727.746094 672.175781 728.355469 C 660.339844 730.109375 648.5 731.941406 636.589844 733.007812 C 627.960938 733.769531 619.179688 733.542969 610.472656 733.695312 C 596.5 733.925781 582.601562 733.160156 568.703125 732.398438 C 557.097656 731.789062 545.566406 730.570312 534.113281 728.890625 C 526.78125 727.824219 519.449219 726.984375 512.347656 724.773438 C 510.363281 724.164062 508.378906 723.25 506.46875 722.410156 C 505.859375 722.179688 505.398438 721.722656 504.867188 721.339844 Z M 504.867188 721.339844 " fill-opacity="1" fill-rule="nonzero"/><path fill="#000000" d="M 502.347656 749.480469 C 502.5 750.929688 502.726562 752.453125 502.878906 753.902344 C 504.027344 764.808594 505.171875 775.636719 506.316406 786.539062 C 508.453125 807.207031 510.667969 827.949219 512.808594 848.613281 C 514.105469 860.964844 515.175781 873.398438 516.394531 885.75 C 516.550781 887.121094 517.3125 888.34375 517.847656 889.640625 C 518.078125 890.171875 518.457031 890.707031 518.382812 891.164062 C 518.304688 891.699219 518 892.382812 517.542969 892.613281 C 517.082031 892.84375 516.320312 892.6875 515.785156 892.460938 C 515.402344 892.308594 515.097656 891.773438 514.867188 891.394531 C 513.496094 888.953125 512.347656 886.4375 512.121094 883.539062 C 510.515625 863.484375 508.761719 843.503906 507.15625 823.449219 C 506.238281 812.316406 505.554688 801.105469 504.636719 789.972656 C 503.71875 778.152344 502.804688 766.410156 501.886719 754.589844 C 501.8125 753.21875 501.660156 751.84375 501.582031 750.546875 C 501.582031 750.167969 501.734375 749.785156 501.8125 749.328125 C 501.964844 749.480469 502.117188 749.480469 502.347656 749.480469 Z M 502.347656 749.480469 " fill-opacity="1" fill-rule="nonzero"/><path fill="#000000" d="M 496.238281 697.472656 C 498.984375 698.007812 501.734375 698.617188 504.484375 699 C 511.433594 699.988281 518.382812 700.980469 525.332031 701.742188 C 532.28125 702.507812 539.226562 703.191406 546.175781 703.648438 C 553.8125 704.261719 561.449219 704.792969 569.164062 705.023438 C 581.152344 705.402344 593.140625 705.710938 605.203125 705.632812 C 616.507812 705.632812 627.808594 705.25 639.03125 704.71875 C 649.417969 704.183594 659.878906 703.496094 670.265625 702.355469 C 676.296875 701.667969 682.253906 700.066406 688.210938 698.847656 C 688.898438 698.695312 689.507812 698.3125 690.273438 698.082031 C 690.5 698.007812 690.882812 698.160156 691.1875 698.234375 C 690.960938 698.464844 690.804688 698.921875 690.578125 698.921875 C 686.683594 699.988281 682.863281 701.285156 678.96875 702.050781 C 668.050781 704.109375 657.054688 705.402344 646.058594 706.320312 C 624.21875 708.074219 602.378906 707.617188 580.539062 707.003906 C 571.375 706.777344 562.136719 706.320312 552.972656 705.710938 C 536.402344 704.71875 519.984375 702.8125 503.71875 699.457031 C 501.199219 698.921875 498.757812 698.3125 496.238281 697.703125 C 496.238281 697.703125 496.238281 697.550781 496.238281 697.472656 Z M 496.238281 697.472656 " fill-opacity="1" fill-rule="nonzero"/><path fill="#000000" d="M 528.308594 940.121094 C 531.898438 941.265625 535.5625 942.410156 539.152344 943.550781 C 549.15625 946.679688 559.386719 949.042969 569.847656 950.109375 C 582.679688 951.40625 595.582031 951.710938 608.488281 950.644531 C 612 950.339844 615.515625 949.957031 619.027344 949.652344 C 623.300781 949.269531 627.503906 949.117188 631.777344 948.738281 C 638.421875 948.050781 644.761719 946.222656 650.871094 943.476562 C 651.785156 943.09375 652.703125 942.636719 653.617188 942.332031 C 654.304688 942.101562 655.144531 942.101562 655.449219 942.867188 C 655.832031 943.78125 655.375 944.390625 654.535156 944.695312 C 652.855469 945.304688 651.25 945.992188 649.496094 946.375 C 640.253906 948.738281 631.167969 951.40625 621.851562 953.238281 C 616.277344 954.304688 610.398438 954.378906 604.671875 954.304688 C 596.652344 954.226562 588.632812 954 580.769531 953.160156 C 565.878906 951.558594 551.140625 949.347656 536.9375 944.238281 C 533.882812 943.171875 530.980469 941.722656 528.003906 940.503906 C 528.15625 940.425781 528.230469 940.273438 528.308594 940.121094 Z M 528.308594 940.121094 " fill-opacity="1" fill-rule="nonzero"/><path fill="#000000" d="M 666.140625 774.722656 C 665.914062 778.457031 665.53125 782.195312 665.378906 786.007812 C 664.917969 794.777344 664.539062 803.46875 664.078125 812.238281 C 663.699219 819.558594 663.621094 826.957031 663.011719 834.199219 C 662.628906 838.699219 661.40625 843.199219 660.492188 847.699219 C 660.183594 849.300781 659.726562 850.824219 659.269531 852.351562 C 659.117188 852.730469 658.582031 853.035156 658.277344 853.417969 C 657.972656 853.035156 657.4375 852.730469 657.359375 852.273438 C 657.054688 851.128906 656.824219 849.984375 656.75 848.84375 C 656.671875 839.15625 657.359375 829.550781 659.039062 820.015625 C 660.414062 812.390625 661.558594 804.765625 662.707031 797.0625 C 663.699219 790.277344 664.613281 783.492188 665.53125 776.703125 C 665.605469 776.015625 665.757812 775.40625 665.914062 774.722656 C 665.988281 774.722656 666.066406 774.722656 666.140625 774.722656 Z M 666.140625 774.722656 " fill-opacity="1" fill-rule="nonzero"/><path fill="#000000" d="M 686.683594 750.699219 C 686.757812 751.234375 686.835938 751.691406 686.757812 752.226562 C 686.300781 757.03125 685.765625 761.757812 685.230469 766.5625 C 684.316406 775.179688 683.398438 783.871094 682.484375 792.488281 C 681.796875 799.351562 681.109375 806.292969 680.421875 813.230469 C 679.65625 820.398438 678.96875 827.566406 678.128906 834.734375 C 677.289062 842.207031 676.449219 849.679688 675.609375 857.230469 C 674.769531 864.855469 674.082031 872.558594 673.320312 880.183594 C 673.015625 883.082031 672.859375 885.980469 672.632812 888.953125 C 672.480469 890.78125 671.5625 892.230469 670.265625 893.453125 C 669.652344 894.0625 668.890625 894.519531 668.125 893.984375 C 667.363281 893.453125 667.363281 892.535156 667.667969 891.699219 C 668.125 890.628906 668.738281 889.5625 669.195312 888.417969 C 670.492188 885.292969 670.722656 881.9375 671.105469 878.660156 C 672.554688 866.226562 674.007812 853.722656 675.382812 841.292969 C 676.449219 831.761719 677.519531 822.152344 678.589844 812.621094 C 679.65625 803.851562 680.804688 795.003906 681.796875 786.234375 C 682.710938 778.457031 683.476562 770.679688 684.390625 762.902344 C 684.773438 759.316406 685.230469 755.734375 685.613281 752.148438 C 685.691406 751.691406 685.84375 751.15625 685.996094 750.699219 C 686.378906 750.699219 686.53125 750.699219 686.683594 750.699219 Z M 686.683594 750.699219 " fill-opacity="1" fill-rule="nonzero"/><path fill="#000000" d="M 522.65625 895.207031 C 523.496094 895.585938 524.414062 895.96875 525.253906 896.351562 C 533.195312 899.628906 541.519531 901.839844 549.996094 903.289062 C 571.605469 907.101562 593.367188 907.253906 615.207031 905.804688 C 624.523438 905.195312 633.917969 904.507812 643.003906 902.296875 C 648.195312 901.078125 653.238281 899.398438 657.972656 896.960938 C 658.277344 896.808594 658.734375 896.960938 659.117188 896.960938 C 658.886719 897.265625 658.734375 897.722656 658.429688 897.949219 C 654.152344 900.390625 649.570312 901.917969 644.914062 903.210938 C 636.4375 905.5 627.960938 907.40625 619.179688 908.246094 C 608.410156 909.238281 597.722656 909.695312 586.953125 908.933594 C 580.539062 908.472656 574.125 908.09375 567.789062 907.332031 C 553.964844 905.804688 540.296875 903.210938 527.390625 897.949219 C 525.710938 897.265625 524.183594 896.425781 522.582031 895.585938 C 522.503906 895.433594 522.582031 895.359375 522.65625 895.207031 Z M 522.65625 895.207031 " fill-opacity="1" fill-rule="nonzero"/><path fill="#000000" d="M 498.453125 703.269531 C 498.679688 703.269531 498.910156 703.269531 499.0625 703.34375 C 505.707031 706.167969 512.808594 707.15625 519.910156 708.074219 C 534.492188 710.054688 549.230469 711.046875 563.96875 711.429688 C 580.921875 711.886719 597.949219 712.191406 614.902344 712.191406 C 624.449219 712.191406 633.917969 711.734375 643.460938 711.046875 C 653.007812 710.4375 662.476562 709.523438 672.019531 708.453125 C 676.222656 707.996094 680.34375 706.851562 684.46875 705.863281 C 685.613281 705.632812 686.605469 705.023438 687.675781 704.566406 C 687.980469 704.414062 688.363281 704.261719 688.667969 704.183594 C 688.746094 704.335938 688.820312 704.488281 688.898438 704.640625 C 688.4375 704.945312 687.980469 705.402344 687.523438 705.558594 C 684.316406 706.546875 681.109375 707.769531 677.824219 708.378906 C 671.945312 709.445312 666.066406 710.4375 660.109375 711.046875 C 635.0625 713.792969 609.9375 713.945312 584.738281 713.640625 C 573.515625 713.488281 562.289062 712.800781 551.0625 712.039062 C 541.902344 711.429688 532.738281 710.359375 523.652344 709.292969 C 516.015625 708.378906 508.53125 706.851562 501.125 704.792969 C 500.132812 704.488281 499.214844 704.03125 498.222656 703.648438 C 498.375 703.496094 498.453125 703.421875 498.453125 703.269531 Z M 498.453125 703.269531 " fill-opacity="1" fill-rule="nonzero"/><path fill="#000000" d="M 490.890625 697.777344 C 491.042969 698.234375 491.273438 698.695312 491.351562 699.152344 C 492.035156 703.496094 492.648438 707.769531 493.335938 712.113281 C 493.640625 714.019531 494.480469 715.621094 495.777344 717.070312 C 496.542969 717.910156 496.847656 719.28125 497 720.425781 C 497.382812 723.476562 497.457031 726.601562 497.839844 729.652344 C 497.917969 730.492188 498.527344 731.484375 499.214844 732.09375 C 500.589844 733.390625 501.125 734.839844 501.046875 736.667969 C 500.894531 738.652344 500.820312 740.710938 500.972656 742.695312 C 501.046875 743.53125 501.660156 744.371094 501.964844 745.210938 C 502.191406 745.972656 502.421875 746.8125 502.347656 747.574219 C 502.269531 747.878906 501.429688 748.335938 500.894531 748.335938 C 499.902344 748.414062 499.136719 747.800781 498.910156 746.886719 C 498.453125 745.210938 498.070312 743.53125 497.917969 741.855469 C 497.765625 740.101562 497.917969 738.347656 497.765625 736.59375 C 497.6875 735.832031 497.382812 734.992188 496.925781 734.457031 C 495.089844 732.628906 495.089844 730.339844 494.863281 728.050781 C 494.558594 725.535156 494.558594 722.941406 494.328125 720.351562 C 494.25 719.894531 494.023438 719.28125 493.640625 718.902344 C 492.570312 717.910156 491.808594 716.691406 491.730469 715.242188 C 491.273438 709.828125 490.816406 704.414062 490.433594 698.921875 C 490.433594 698.542969 490.433594 698.160156 490.433594 697.777344 C 490.507812 697.855469 490.738281 697.855469 490.890625 697.777344 Z M 490.890625 697.777344 " fill-opacity="1" fill-rule="nonzero"/><path fill="#000000" d="M 652.394531 913.203125 C 652.394531 914.347656 652.394531 915.566406 652.394531 916.710938 C 652.394531 921.054688 652.320312 925.328125 653.082031 929.671875 C 653.238281 930.742188 653.007812 931.960938 652.625 933.027344 C 652.320312 934.097656 651.328125 934.628906 650.183594 934.554688 C 649.035156 934.402344 648.347656 933.640625 648.195312 932.570312 C 648.042969 931.808594 647.96875 930.96875 648.195312 930.207031 C 649.34375 925.023438 650.488281 919.835938 651.710938 914.652344 C 651.863281 914.117188 652.015625 913.660156 652.167969 913.125 C 652.167969 913.203125 652.242188 913.203125 652.394531 913.203125 Z M 652.394531 913.203125 " fill-opacity="1" fill-rule="nonzero"/><path fill="#000000" d="M 656.445312 868.515625 C 656.75 869.429688 657.054688 870.269531 657.285156 871.183594 C 657.664062 873.167969 657.972656 875.152344 658.125 877.132812 C 658.199219 878.125 657.894531 879.269531 657.4375 880.257812 C 657.054688 881.175781 656.136719 881.554688 655.144531 881.480469 C 654.078125 881.402344 653.3125 880.792969 653.007812 879.800781 C 652.777344 879.117188 652.550781 878.199219 652.777344 877.589844 C 653.769531 874.617188 654.917969 871.71875 655.984375 868.820312 C 656.0625 868.667969 656.0625 868.515625 656.136719 868.363281 C 656.214844 868.441406 656.289062 868.515625 656.445312 868.515625 Z M 656.445312 868.515625 " fill-opacity="1" fill-rule="nonzero"/><g clip-path="url(#62f969ecc4)"><path fill="#000000" d="M 481.957031 688.855469 C 482.414062 687.789062 482.644531 686.570312 483.253906 685.578125 C 484.476562 683.519531 486.386719 682.144531 488.523438 681.15625 C 488.828125 681.003906 489.210938 681.15625 489.59375 681.15625 C 489.441406 681.460938 489.289062 681.765625 489.136719 681.992188 C 488.21875 682.910156 487.148438 683.746094 486.308594 684.738281 C 483.636719 687.867188 483.867188 690.457031 487.53125 693.433594 C 487.988281 693.8125 488.523438 694.042969 488.828125 694.5 C 489.058594 694.804688 489.289062 695.492188 489.058594 695.796875 C 488.828125 696.175781 488.21875 696.328125 487.761719 696.480469 C 487.609375 696.558594 487.300781 696.40625 487.074219 696.328125 C 484.628906 695.1875 482.1875 691.527344 481.957031 688.855469 Z M 481.957031 688.855469 " fill-opacity="1" fill-rule="nonzero"/></g><path fill="#000000" d="M 516.777344 772.355469 C 519.679688 779.066406 522.582031 785.777344 525.179688 792.71875 C 525.023438 792.792969 524.949219 792.871094 524.796875 792.945312 C 524.492188 792.566406 524.03125 792.261719 523.804688 791.878906 C 522.582031 789.742188 521.285156 787.609375 520.289062 785.320312 C 518.839844 781.738281 517.695312 778 516.394531 774.339844 C 516.242188 773.804688 516.242188 773.121094 516.167969 772.585938 C 516.394531 772.433594 516.550781 772.433594 516.777344 772.355469 Z M 516.777344 772.355469 " fill-opacity="1" fill-rule="nonzero"/><path fill="#000000" d="M 523.421875 778.078125 C 521.207031 776.476562 516.472656 763.359375 517.160156 760.84375 C 517.617188 761.375 518.078125 761.679688 518.230469 762.140625 C 520.214844 766.789062 522.429688 771.367188 523.34375 776.476562 C 523.496094 776.855469 523.421875 777.3125 523.421875 778.078125 Z M 523.421875 778.078125 " fill-opacity="1" fill-rule="nonzero"/><path fill="#000000" d="M 525.101562 804.765625 C 522.199219 803.011719 515.632812 788.828125 516.703125 786.691406 C 517.847656 787.609375 525.40625 803.699219 525.101562 804.765625 Z M 525.101562 804.765625 " fill-opacity="1" fill-rule="nonzero"/><path fill="#000000" d="M 526.324219 813.917969 C 522.429688 808.503906 519.375 802.628906 516.625 796.605469 C 520.289062 802.097656 523.726562 807.816406 526.324219 813.917969 Z M 526.324219 813.917969 " fill-opacity="1" fill-rule="nonzero"/><path fill="#000000" d="M 530.90625 922.503906 C 532.890625 926.699219 534.875 930.894531 536.859375 935.011719 C 536.785156 935.085938 536.707031 935.164062 536.632812 935.242188 C 536.328125 935.085938 535.867188 934.933594 535.640625 934.707031 C 533.273438 931.199219 531.285156 927.613281 530.445312 923.421875 C 530.371094 923.191406 530.445312 922.886719 530.445312 922.582031 C 530.675781 922.582031 530.753906 922.582031 530.90625 922.503906 Z M 530.90625 922.503906 " fill-opacity="1" fill-rule="nonzero"/><path fill="#000000" d="M 525.101562 915.488281 C 527.316406 921.210938 529.453125 926.699219 531.667969 932.265625 C 529.683594 931.273438 524.644531 918.386719 525.101562 915.488281 Z M 525.101562 915.488281 " fill-opacity="1" fill-rule="nonzero"/><path fill="#000000" d="M 537.929688 930.359375 C 538.007812 930.207031 538.160156 929.902344 538.3125 929.824219 C 538.542969 929.75 538.921875 929.902344 539 930.054688 C 540.375 932.191406 541.75 934.324219 543.046875 936.460938 C 543.199219 936.6875 543.046875 937.148438 542.894531 937.300781 C 542.742188 937.453125 542.207031 937.375 542.054688 937.222656 C 540.375 935.316406 538.695312 933.410156 538.007812 930.894531 C 538.007812 930.742188 538.007812 930.589844 537.929688 930.359375 Z M 537.929688 930.359375 " fill-opacity="1" fill-rule="nonzero"/></svg>