<svg xmlns="http://www.w3.org/2000/svg" xmlns:xlink="http://www.w3.org/1999/xlink" width="1587" zoomAndPan="magnify" viewBox="0 0 1190.25 1683.749949" height="2245" preserveAspectRatio="xMidYMid meet" version="1.0"><defs><clipPath id="06be4c76c3"><path d="M 0 0.40625 L 1189.5 0.40625 L 1189.5 1683.09375 L 0 1683.09375 Z M 0 0.40625 " clip-rule="nonzero"/></clipPath><clipPath id="1800869f34"><path d="M 357 673.894531 L 832.890625 673.894531 L 832.890625 1009.683594 L 357 1009.683594 Z M 357 673.894531 " clip-rule="nonzero"/></clipPath></defs><g clip-path="url(#06be4c76c3)"><path fill="#ffffff" d="M 0 0.40625 L 1189.5 0.40625 L 1189.5 1683.09375 L 0 1683.09375 Z M 0 0.40625 " fill-opacity="1" fill-rule="nonzero"/><path fill="#ffffff" d="M 0 0.40625 L 1189.5 0.40625 L 1189.5 1683.09375 L 0 1683.09375 Z M 0 0.40625 " fill-opacity="1" fill-rule="nonzero"/></g><g clip-path="url(#1800869f34)"><path fill="#000000" d="M 783.792969 876.96875 L 783.792969 851.605469 C 783.792969 851.601562 783.792969 851.597656 783.792969 851.589844 L 783.792969 749.351562 C 783.792969 707.039062 700.828125 673.894531 594.914062 673.894531 C 489 673.894531 406.035156 707.039062 406.035156 749.351562 L 406.035156 876.96875 C 374.132812 891.269531 357.246094 908.675781 357.246094 927.394531 C 357.246094 973.539062 461.644531 1009.683594 594.914062 1009.683594 C 728.1875 1009.683594 832.585938 973.539062 832.585938 927.394531 C 832.585938 908.675781 815.699219 891.269531 783.792969 876.96875 Z M 413.582031 847.824219 C 427.453125 849.25 433.316406 858.558594 439.476562 868.390625 C 444.023438 875.648438 448.722656 883.148438 456.765625 886.707031 C 466.074219 890.808594 473.503906 887.5 480.691406 884.308594 C 487.164062 881.417969 493.867188 878.433594 503.070312 880.140625 C 514.195312 882.191406 519.875 889.304688 525.890625 896.835938 C 532.078125 904.578125 538.46875 912.582031 550.644531 914.003906 C 551.796875 914.136719 552.90625 914.203125 553.976562 914.203125 C 563.832031 914.203125 570.546875 908.839844 577.054688 903.644531 C 583.894531 898.183594 590.96875 892.535156 602.621094 892.070312 C 614.214844 891.640625 621.523438 896.542969 628.707031 901.296875 C 636.457031 906.425781 644.492188 911.742188 656.347656 909.433594 C 668.25 907.136719 674.296875 898.980469 679.632812 891.78125 C 684.925781 884.636719 689.492188 878.472656 698.980469 876.726562 C 707.496094 875.148438 714.042969 878.34375 720.980469 881.71875 C 728.625 885.4375 736.535156 889.273438 746.871094 886.597656 C 757.40625 883.859375 768.65625 874.601562 776.253906 864.90625 L 776.253906 895.207031 C 776.253906 932.019531 693.210938 963.117188 594.917969 963.117188 C 496.625 963.117188 413.585938 932.019531 413.585938 895.207031 L 413.585938 847.824219 Z M 594.914062 681.441406 C 693.210938 681.441406 776.25 712.539062 776.25 749.351562 C 776.25 786.164062 693.210938 817.265625 594.914062 817.265625 C 496.617188 817.265625 413.582031 786.164062 413.582031 749.351562 C 413.582031 712.539062 496.617188 681.441406 594.914062 681.441406 Z M 594.914062 824.8125 C 682.039062 824.8125 753.585938 802.375 776.25 770.867188 L 776.25 850.769531 C 771.378906 861.597656 756.9375 876.1875 744.976562 879.296875 C 737.308594 881.285156 731.273438 878.339844 724.277344 874.933594 C 716.914062 871.355469 708.5625 867.289062 697.613281 869.308594 C 685.199219 871.589844 679.019531 879.929688 673.570312 887.289062 C 668.402344 894.265625 663.9375 900.285156 654.917969 902.03125 C 646.070312 903.734375 640.242188 899.890625 632.871094 895.007812 C 625.0625 889.839844 616.164062 883.949219 602.320312 884.535156 C 588.195312 885.09375 579.773438 891.820312 572.34375 897.753906 C 565.507812 903.203125 560.097656 907.515625 551.515625 906.511719 C 542.425781 905.453125 537.492188 899.28125 531.785156 892.128906 C 525.480469 884.234375 518.335938 875.289062 504.441406 872.722656 C 492.953125 870.601562 484.445312 874.375 477.625 877.421875 C 470.921875 880.40625 466.074219 882.558594 459.820312 879.804688 C 453.894531 877.191406 449.996094 870.972656 445.878906 864.386719 C 439.519531 854.234375 431.695312 841.753906 413.585938 840.230469 L 413.585938 770.867188 C 436.242188 802.375 507.792969 824.8125 594.914062 824.8125 Z M 594.914062 1002.136719 C 470.175781 1002.136719 364.792969 967.914062 364.792969 927.394531 C 364.792969 912.640625 379.382812 897.78125 406.035156 885.246094 L 406.035156 895.203125 C 406.035156 937.515625 489 970.660156 594.914062 970.660156 C 700.828125 970.660156 783.792969 937.515625 783.792969 895.203125 L 783.792969 885.246094 C 810.449219 897.785156 825.039062 912.640625 825.039062 927.394531 C 825.039062 967.914062 719.652344 1002.136719 594.914062 1002.136719 Z M 594.914062 1002.136719 " fill-opacity="1" fill-rule="nonzero"/></g><path fill="#000000" d="M 551.75 761.667969 C 551.769531 761.667969 551.785156 761.667969 551.804688 761.667969 C 552.792969 761.667969 553.738281 761.277344 554.445312 760.589844 C 570.882812 744.46875 577.550781 726.277344 571.835938 713.125 C 567.636719 703.445312 561.457031 700.183594 557.011719 699.15625 C 548.339844 697.148438 541.339844 702.382812 540.019531 703.457031 C 536.578125 706.238281 534.707031 709.8125 533.691406 712.808594 C 530.796875 711.394531 526.867188 710.148438 522.464844 710.5 C 520.773438 710.640625 512.101562 711.703125 507.203125 719.136719 C 504.695312 722.941406 502.460938 729.5625 506.066406 739.496094 C 510.851562 752.648438 528.785156 761.363281 551.75 761.667969 Z M 513.507812 723.277344 C 516.542969 718.675781 522.417969 718.066406 523.082031 718.015625 C 523.398438 717.984375 523.710938 717.972656 524.019531 717.972656 C 529.375 717.972656 533.738281 721.6875 533.765625 721.714844 C 534.859375 722.679688 536.394531 722.917969 537.742188 722.347656 C 539.078125 721.78125 539.972656 720.484375 540.03125 719.03125 C 540.035156 718.964844 540.351562 712.882812 544.769531 709.316406 C 545.285156 708.898438 549.925781 705.246094 555.316406 706.507812 C 558.066406 707.140625 561.964844 709.324219 564.917969 716.128906 C 569.167969 725.917969 563.425781 740.703125 550.273438 754.085938 C 531.519531 753.484375 516.707031 746.671875 513.15625 736.902344 C 510.625 729.925781 511.953125 725.644531 513.507812 723.277344 Z M 513.507812 723.277344 " fill-opacity="1" fill-rule="nonzero"/><path fill="#000000" d="M 637.382812 769.347656 C 638.085938 770.070312 639.039062 770.484375 640.046875 770.496094 C 640.300781 770.5 640.558594 770.5 640.8125 770.5 C 656.769531 770.5 668.941406 764.644531 672.664062 755.132812 C 675.496094 747.917969 673.9375 742.949219 672.132812 740.046875 C 668.710938 734.5625 662.679688 733.496094 660.90625 733.300781 C 658.15625 733 655.75 733.542969 653.8125 734.324219 C 652.980469 732.359375 651.660156 730.199219 649.558594 728.414062 C 648.199219 727.261719 643.257812 723.621094 636.953125 724.917969 C 633.621094 725.601562 628.960938 727.890625 625.679688 734.933594 C 621.351562 744.257812 625.835938 757.449219 637.382812 769.347656 Z M 632.53125 738.105469 C 634.484375 733.925781 636.839844 732.644531 638.472656 732.3125 C 638.867188 732.230469 639.25 732.199219 639.625 732.199219 C 642.265625 732.199219 644.425781 733.949219 644.691406 734.167969 C 647.347656 736.429688 647.683594 740.371094 647.683594 740.378906 C 647.777344 741.824219 648.703125 743.078125 650.042969 743.621094 C 651.390625 744.164062 652.9375 743.882812 654.011719 742.914062 C 654.042969 742.890625 656.761719 740.421875 660.089844 740.796875 C 660.484375 740.839844 664.03125 741.308594 665.734375 744.035156 C 667.011719 746.085938 666.980469 748.96875 665.644531 752.375 C 663.214844 758.578125 653.703125 762.734375 641.714844 762.941406 C 633.4375 753.9375 629.753906 744.085938 632.53125 738.105469 Z M 632.53125 738.105469 " fill-opacity="1" fill-rule="nonzero"/><path fill="#000000" d="M 601.300781 726.992188 C 601.910156 727.378906 602.617188 727.578125 603.328125 727.578125 C 603.605469 727.578125 603.882812 727.550781 604.160156 727.488281 C 617.414062 724.492188 626.40625 717.257812 627.632812 708.605469 C 628.359375 703.503906 627.136719 699.089844 624.183594 696.167969 C 621.015625 693.027344 616.558594 692.335938 613.453125 692.742188 C 611.394531 693 609.667969 693.753906 608.285156 694.636719 C 607.242188 693.332031 605.835938 692.035156 603.984375 691.089844 C 601.1875 689.660156 596.753906 688.808594 592.726562 690.6875 C 590.066406 691.925781 586.621094 694.757812 585.292969 701.226562 C 583.550781 709.714844 589.6875 719.589844 601.300781 726.992188 Z M 592.683594 702.742188 C 593.234375 700.054688 594.347656 698.257812 595.90625 697.523438 C 596.511719 697.246094 597.140625 697.140625 597.734375 697.140625 C 599.21875 697.140625 600.484375 697.773438 600.554688 697.8125 C 602.804688 698.957031 603.726562 701.734375 603.726562 701.734375 C 604.15625 703.132812 605.351562 704.160156 606.796875 704.367188 C 608.230469 704.609375 609.683594 703.9375 610.488281 702.714844 C 610.503906 702.691406 612.066406 700.523438 614.40625 700.230469 C 614.527344 700.207031 617.210938 699.890625 618.875 701.535156 C 620.105469 702.75 620.546875 704.828125 620.160156 707.546875 C 619.453125 712.574219 613.042969 717.378906 604.035156 719.753906 C 596.199219 714.375 591.675781 707.660156 592.683594 702.742188 Z M 592.683594 702.742188 " fill-opacity="1" fill-rule="nonzero"/></svg>