<svg xmlns="http://www.w3.org/2000/svg" xmlns:xlink="http://www.w3.org/1999/xlink" width="1587" zoomAndPan="magnify" viewBox="0 0 1190.25 1683.749949" height="2245" preserveAspectRatio="xMidYMid meet" version="1.0"><defs><clipPath id="c901d7e915"><path d="M 0 0.40625 L 1189.5 0.40625 L 1189.5 1683.09375 L 0 1683.09375 Z M 0 0.40625 " clip-rule="nonzero"/></clipPath><clipPath id="edeff5be8c"><path d="M 432.703125 679.570312 L 757.25 679.570312 L 757.25 1004.113281 L 432.703125 1004.113281 Z M 432.703125 679.570312 " clip-rule="nonzero"/></clipPath></defs><g clip-path="url(#c901d7e915)"><path fill="#ffffff" d="M 0 0.40625 L 1189.5 0.40625 L 1189.5 1683.09375 L 0 1683.09375 Z M 0 0.40625 " fill-opacity="1" fill-rule="nonzero"/><path fill="#ffffff" d="M 0 0.40625 L 1189.5 0.40625 L 1189.5 1683.09375 L 0 1683.09375 Z M 0 0.40625 " fill-opacity="1" fill-rule="nonzero"/></g><g clip-path="url(#edeff5be8c)"><path fill="#000000" d="M 594.976562 679.570312 C 505.449219 679.570312 432.703125 752.3125 432.703125 841.839844 C 432.703125 931.367188 505.449219 1004.113281 594.976562 1004.113281 C 684.503906 1004.113281 757.25 931.367188 757.25 841.839844 C 757.25 837.042969 756.949219 832.421875 756.554688 827.957031 C 756.316406 825.269531 754.714844 822.886719 752.300781 821.679688 C 749.855469 820.46875 746.988281 820.621094 744.695312 822.070312 C 740.4375 824.785156 735.546875 826.386719 730.203125 826.386719 C 718.734375 826.386719 709.105469 819.292969 705.121094 809.332031 C 704.304688 807.28125 702.644531 805.679688 700.59375 804.925781 C 698.511719 804.171875 696.21875 804.320312 694.253906 805.378906 C 687.734375 808.910156 680.25 810.933594 672.25 810.933594 C 646.5625 810.933594 625.886719 790.253906 625.886719 764.570312 C 625.886719 756.570312 627.910156 749.082031 631.441406 742.5625 C 632.496094 740.601562 632.648438 738.308594 631.894531 736.226562 C 631.140625 734.171875 629.539062 732.511719 627.488281 731.699219 C 617.527344 727.714844 610.433594 718.085938 610.433594 706.613281 C 610.433594 701.269531 612.03125 696.382812 614.75 692.125 C 616.199219 689.832031 616.347656 686.964844 615.140625 684.519531 C 613.933594 682.105469 611.550781 680.503906 608.863281 680.261719 C 604.394531 679.871094 599.777344 679.570312 594.976562 679.570312 Z M 695.433594 679.570312 C 686.890625 679.570312 679.976562 686.480469 679.976562 695.023438 C 679.976562 703.566406 686.890625 710.476562 695.433594 710.476562 C 703.972656 710.476562 710.886719 703.566406 710.886719 695.023438 C 710.886719 686.480469 703.972656 679.570312 695.433594 679.570312 Z M 594.976562 695.023438 C 596.09375 695.023438 597.242188 695.144531 598.359375 695.203125 C 597.179688 699.039062 594.976562 702.386719 594.976562 706.613281 C 594.976562 721.585938 603.761719 733.539062 615.535156 741.085938 C 612.515625 748.390625 610.433594 756.207031 610.433594 764.570312 C 610.433594 798.617188 638.203125 826.386719 672.25 826.386719 C 680.613281 826.386719 688.429688 824.304688 695.734375 821.285156 C 703.28125 833.058594 715.234375 841.839844 730.203125 841.839844 C 734.429688 841.839844 737.78125 839.636719 741.644531 838.460938 C 741.675781 839.578125 741.796875 840.722656 741.796875 841.839844 C 741.796875 923.007812 676.144531 988.660156 594.976562 988.660156 C 513.8125 988.660156 448.160156 923.007812 448.160156 841.839844 C 448.160156 760.675781 513.8125 695.023438 594.976562 695.023438 Z M 683.839844 741.386719 C 677.441406 741.386719 672.25 746.578125 672.25 752.976562 C 672.25 759.375 677.441406 764.570312 683.839844 764.570312 C 690.242188 764.570312 695.433594 759.375 695.433594 752.976562 C 695.433594 746.578125 690.242188 741.386719 683.839844 741.386719 Z M 567.933594 764.570312 C 561.53125 764.570312 556.339844 769.761719 556.339844 776.160156 C 556.339844 782.558594 561.53125 787.75 567.933594 787.75 C 574.332031 787.75 579.523438 782.558594 579.523438 776.160156 C 579.523438 769.761719 574.332031 764.570312 567.933594 764.570312 Z M 749.523438 764.570312 C 745.265625 764.570312 741.796875 768.039062 741.796875 772.296875 C 741.796875 776.550781 745.265625 780.023438 749.523438 780.023438 C 753.777344 780.023438 757.25 776.550781 757.25 772.296875 C 757.25 768.039062 753.777344 764.570312 749.523438 764.570312 Z M 517.703125 803.203125 C 504.90625 803.203125 494.523438 813.589844 494.523438 826.386719 C 494.523438 839.183594 504.90625 849.570312 517.703125 849.570312 C 530.503906 849.570312 540.886719 839.183594 540.886719 826.386719 C 540.886719 813.589844 530.503906 803.203125 517.703125 803.203125 Z M 591.113281 834.113281 C 584.714844 834.113281 579.523438 839.304688 579.523438 845.703125 C 579.523438 852.105469 584.714844 857.296875 591.113281 857.296875 C 597.511719 857.296875 602.703125 852.105469 602.703125 845.703125 C 602.703125 839.304688 597.511719 834.113281 591.113281 834.113281 Z M 533.160156 888.203125 C 524.617188 888.203125 517.703125 895.117188 517.703125 903.660156 C 517.703125 912.203125 524.617188 919.113281 533.160156 919.113281 C 541.703125 919.113281 548.613281 912.203125 548.613281 903.660156 C 548.613281 895.117188 541.703125 888.203125 533.160156 888.203125 Z M 637.476562 895.933594 C 626.824219 895.933594 618.160156 904.59375 618.160156 915.25 C 618.160156 925.90625 626.824219 934.570312 637.476562 934.570312 C 648.132812 934.570312 656.796875 925.90625 656.796875 915.25 C 656.796875 904.59375 648.132812 895.933594 637.476562 895.933594 Z M 637.476562 895.933594 " fill-opacity="1" fill-rule="nonzero"/></g></svg>